<?xml version="1.0" encoding="utf-8"?>
<svg version="1.1" xmlns="http://www.w3.org/2000/svg" viewBox="0 0 1000 1000">
<g transform="translate(0.000000,511.000000) scale(0.100000,-0.100000)" fill="#089191">
<path d="M1818.1,301.5V-4407h-561H698.4l-13.5-128.4c-6.8-69.8-6.8-155.4,0-191.5l13.5-63.1h4309.7h4312v191.5v191.5h-484.4h-484.4V301.5V5010H5084.8H1818.1V301.5z M7979.7,121.3v-4517l-94.6-6.7l-96.9-6.8V17.6v4429.1H5096H2403.8V17.6v-4426.9l-94.6,6.8l-96.9,6.7l-6.8,4494.5c-2.3,2471.4,0,4505.8,4.5,4519.3c6.8,18,808.8,24.8,2890.5,22.5l2879.2-2.3V121.3z M7405.2-171.6V-4407h-281.6H6842v1734.7v1734.7H5107.3H3372.6v-1734.7V-4407h-292.9h-292.9v4235.4v4235.4H5096h2309.2V-171.6z M6436.5-2863.8V-4407H5096H3755.6v1543.2v1543.2H5096h1340.5V-2863.8z"/><path d="M3372.6,1551.8V-374.4h1734.7H6842v1926.2V3478H5107.3H3372.6V1551.8z M4904.5,2419.2v-675.9h-574.5h-574.5v675.9v675.9h574.5h574.5V2419.2z M6436.5,2419.2v-675.9H5862h-574.5v675.9v675.9H5862h574.5V2419.2z M4904.5,684.5V8.6h-574.5h-574.5v675.9v675.9h574.5h574.5V684.5z M6436.5,684.5V8.6H5862h-574.5v675.9v675.9H5862h574.5V684.5z"/></g>
</svg>