<svg viewBox="0 0 64 62" xmlns="http://www.w3.org/2000/svg">
    <g id="Page-1" stroke="none" stroke-width="1" fill="none" fill-rule="evenodd">
        <g id="Fence" transform="translate(1.000000, 2.000000)" stroke="#089191" stroke-width="2">
            <path d="M14,49 L14,57 C14,58.1 13.1,59 12,59 L2,59 C0.9,59 0,58.1 0,57 L0,9 C0,7.9 7,1 7,1 C7,1 14,7.9 14,9 L14,19" id="Shape"></path>
            <path d="M14,23 L14,45" id="Shape"></path>
            <path d="M38,49 L38,57 C38,58.1 37.1,59 36,59 L26,59 C24.9,59 24,58.1 24,57 L24,49" id="Shape"></path>
            <path d="M38,23 L38,45" id="Shape"></path>
            <path d="M24,19 L24,9 C24,7.9 31,0 31,0 C31,0 38,7.9 38,9 L38,19" id="Shape"></path>
            <path d="M24,45 L24,23" id="Shape"></path>
            <path d="M48,45 L48,23" id="Shape"></path>
            <path d="M48,19 L48,9 C48,7.9 55,0 55,0 C55,0 62,7.9 62,9 L62,57 C62,58.1 61.1,59 60,59 L50,59 C48.9,59 48,58.1 48,57 L48,49" id="Shape"></path>
            <path d="M38,43 L48,43" id="Shape"></path>
            <path d="M14,43 L24,43" id="Shape"></path>
            <path d="M24,51 L14,51" id="Shape"></path>
            <path d="M48,51 L38,51" id="Shape"></path>
            <path d="M38,17 L48,17" id="Shape"></path>
            <path d="M14,17 L24,17" id="Shape"></path>
            <path d="M24,25 L14,25" id="Shape"></path>
            <path d="M48,25 L38,25" id="Shape"></path>
        </g>
    </g>
</svg>