<svg xmlns="http://www.w3.org/2000/svg" viewBox="-0.258 -0.548 123.547 123.539">
<g>
	<path style="fill:#089191" d="M109.633,122.887c8.148,0,14.766-6.617,14.766-14.773V14.098c0-8.156-6.617-14.75-14.766-14.75
		H15.617c-8.156,0-14.758,6.594-14.758,14.75v94.016c0,8.156,6.602,14.773,14.758,14.773H109.633z"/>
	<path style="fill:#FFFFFF;" d="M15.617,1.84c-6.758,0-12.258,5.492-12.258,12.258v94.016c0,6.766,5.5,12.258,12.258,12.258h94.016
		c6.758,0,12.25-5.492,12.25-12.258V14.098c0-6.766-5.492-12.258-12.25-12.258H15.617z"/>
	<path style="fill:#089191" d="M71.32,59.363c7.008,0,12.695-5.695,12.695-12.695c0-7.031-5.688-12.719-12.695-12.719
		l-18.727-0.031v25.445H71.32z M71.055,18.293c15.867,0,28.711,12.844,28.711,28.688c0,15.875-12.844,28.711-28.711,28.711
		l-18.461-0.023v27.25H36.055V18.293H71.055z"/>
</g>
</svg>
